<?xml version="1.0" standalone="no"?>
<!DOCTYPE svg PUBLIC "-//W3C//DTD SVG 20010904//EN"
 "http://www.w3.org/TR/2001/REC-SVG-20010904/DTD/svg10.dtd">
<svg version="1.0" xmlns="http://www.w3.org/2000/svg"
 width="1200.000000pt" height="1200.000000pt" viewBox="0 0 1200.000000 1200.000000"
 preserveAspectRatio="xMidYMid meet">
<metadata>
Created by potrace 1.16, written by Peter Selinger 2001-2019
</metadata>
<g transform="translate(0.000000,1200.000000) scale(0.100000,-0.100000)"
fill="#000000" stroke="none">
<path d="M7300 6780 l0 -350 -1925 0 c-1059 0 -1925 -4 -1925 -8 0 -8 127
-150 423 -471 82 -88 147 -165 145 -170 -1 -6 -118 -131 -259 -278 -310 -324
-309 -323 -309 -362 l0 -31 1925 0 1925 0 0 -351 c0 -330 1 -351 18 -346 9 2
535 206 1167 451 633 246 1412 549 1733 673 320 124 582 229 582 233 0 3 -213
89 -472 189 -1640 637 -1968 764 -2464 957 -304 118 -554 214 -558 214 -3 0
-6 -157 -6 -350z m-2684 -632 c131 -145 258 -284 282 -310 l44 -47 -277 -295
c-152 -163 -280 -298 -286 -301 -5 -4 -9 228 -9 604 0 336 2 611 4 611 2 0
111 -118 242 -262z"/>
<path d="M2310 5771 c0 -348 4 -631 9 -629 15 6 566 599 569 613 2 10 -405
470 -554 625 l-24 25 0 -634z"/>
<path d="M1330 5764 c0 -360 4 -624 9 -622 18 6 571 603 571 616 0 14 -560
632 -572 632 -5 0 -8 -282 -8 -626z"/>
<path d="M3160 5766 c0 -344 2 -626 3 -626 2 0 123 127 268 282 145 154 274
292 287 306 13 13 22 28 20 32 -4 11 -556 618 -569 626 -5 3 -9 -246 -9 -620z"/>
<path d="M7020 791 c0 -28 -2 -29 -52 -33 -29 -3 -57 -1 -62 4 -17 14 -57 9
-97 -14 -22 -12 -39 -26 -39 -31 0 -4 -6 -15 -14 -22 -12 -12 -15 -11 -20 9
-8 32 -72 70 -105 61 -14 -3 -40 -6 -57 -5 -37 1 -59 -21 -51 -52 5 -19 4 -21
-6 -8 -41 53 -125 88 -142 60 -4 -6 -21 -8 -41 -4 -27 5 -34 3 -34 -10 0 -9
-1 -77 -1 -151 0 -74 1 -142 1 -151 0 -10 7 -14 23 -12 17 2 23 10 25 39 3 33
5 35 32 31 44 -6 94 6 117 28 21 19 21 19 27 -6 5 -19 13 -24 36 -24 l30 0 0
83 c1 75 3 83 25 100 20 14 28 15 44 5 17 -11 21 -25 23 -98 3 -85 3 -85 31
-88 23 -3 28 1 33 27 7 33 18 40 27 17 3 -8 -1 -17 -9 -20 -22 -9 -16 -35 15
-67 26 -26 36 -29 93 -29 59 0 67 3 94 31 27 28 29 36 32 125 4 106 22 130 22
29 0 -86 17 -106 95 -113 l55 -4 0 85 c0 72 3 88 18 96 15 8 17 3 15 -60 -1
-52 2 -69 12 -69 8 0 18 -6 22 -14 30 -50 172 -46 188 6 9 25 33 30 40 8 8
-27 60 -50 111 -50 34 0 51 6 75 28 29 26 31 32 32 99 1 78 -10 101 -65 129
-29 15 -88 19 -88 6 0 -5 -16 -14 -35 -22 -19 -7 -32 -16 -30 -20 2 -3 0 -12
-5 -19 -9 -16 -30 -6 -30 14 0 7 -13 19 -30 27 -16 7 -30 16 -30 20 0 5 -18 8
-40 8 -22 0 -40 -4 -40 -10 0 -5 -5 -10 -12 -10 -6 0 -22 -10 -35 -22 l-23
-21 0 25 c0 25 -24 45 -34 29 -5 -7 -20 -7 -88 -2 -5 1 -8 15 -8 31 0 28 -3
30 -35 30 -32 0 -35 -3 -35 -29z"/>
<path d="M4401 629 c-12 -50 -21 -102 -21 -116 0 -25 1 -25 68 -21 104 5 142
43 142 138 0 72 -21 90 -104 90 l-64 0 -21 -91z"/>
<path d="M5705 691 c-6 -27 -9 -29 -39 -24 -42 7 -69 -8 -88 -47 l-15 -32 -7
28 c-19 73 -117 71 -155 -3 -30 -59 6 -123 69 -123 47 0 94 33 70 50 -8 6 -24
8 -35 4 -36 -10 -48 -9 -52 4 -3 9 10 12 49 12 50 0 54 -2 68 -33 15 -32 16
-32 84 -32 66 0 69 1 73 25 4 29 31 157 39 183 4 13 -1 17 -25 17 -24 0 -30
-5 -36 -29z"/>
<path d="M5852 617 c-12 -57 -22 -109 -22 -114 0 -6 27 -11 66 -11 87 -1 114
22 114 96 0 58 -24 87 -64 80 -23 -5 -24 -3 -19 23 5 27 3 29 -24 29 -29 0
-30 0 -51 -103z"/>
<path d="M4650 657 c-51 -40 -63 -98 -29 -141 26 -33 84 -36 121 -6 25 19 26
19 43 0 22 -25 91 -27 123 -4 17 12 22 24 20 47 -3 27 -9 34 -47 48 -28 10
-40 19 -32 24 7 4 18 2 24 -4 16 -16 67 -14 67 2 0 42 -84 62 -128 31 -17 -12
-22 -24 -20 -47 3 -27 9 -34 48 -48 35 -13 41 -19 27 -24 -9 -4 -27 -1 -40 7
-15 10 -31 12 -50 7 -16 -4 -35 -5 -43 -2 -8 3 -21 0 -29 -7 -16 -13 -45 -7
-45 10 0 6 24 10 55 10 l56 0 -3 41 c-1 28 -8 45 -22 55 -25 17 -75 18 -96 1z"/>
<path d="M5055 648 c-17 -16 -27 -37 -31 -69 -5 -40 -3 -50 16 -69 16 -16 29
-21 51 -16 23 4 27 2 22 -10 -6 -16 -20 -15 -80 2 -18 5 -23 2 -23 -13 0 -31
21 -43 77 -43 43 0 55 4 67 23 13 19 56 179 56 207 0 6 -13 10 -30 10 -17 0
-30 -5 -30 -12 0 -9 -3 -9 -12 0 -19 19 -54 14 -83 -10z"/>
<path d="M5217 592 c-22 -102 -22 -104 10 -100 21 2 29 10 35 38 14 57 29 88
45 94 13 5 14 -2 8 -50 -3 -30 -9 -62 -12 -70 -4 -10 3 -14 25 -14 33 0 34 2
48 103 9 64 -2 75 -80 75 l-63 0 -16 -76z"/>
<path d="M6034 628 c3 -24 8 -67 12 -95 5 -46 4 -54 -12 -60 -20 -7 -34 -22
-34 -36 0 -5 19 -7 42 -5 41 3 42 4 80 78 22 41 48 90 59 109 23 38 20 46 -13
38 -15 -4 -33 -24 -48 -54 l-25 -48 -5 55 c-5 51 -7 55 -33 58 -27 3 -28 3
-23 -40z"/>
</g>
</svg>
